<mxfile host="app.diagrams.net" modified="2023-04-26T02:42:38.628Z" agent="Mozilla/5.0 (Windows NT 10.0; Win64; x64; rv:109.0) Gecko/20100101 Firefox/112.0" etag="TF3CvjCqy1lJPx2VVhB8" version="21.2.1" type="github">
  <diagram id="C5RBs43oDa-KdzZeNtuy" name="Page-1">
    <mxGraphModel dx="1820" dy="1687" grid="1" gridSize="10" guides="1" tooltips="1" connect="1" arrows="1" fold="1" page="1" pageScale="1" pageWidth="827" pageHeight="1169" math="0" shadow="0">
      <root>
        <mxCell id="WIyWlLk6GJQsqaUBKTNV-0" />
        <mxCell id="WIyWlLk6GJQsqaUBKTNV-1" parent="WIyWlLk6GJQsqaUBKTNV-0" />
        <mxCell id="STR40PrAWkJtTs-GtsQ4-0" value="Sort" style="swimlane;whiteSpace=wrap;html=1;" parent="WIyWlLk6GJQsqaUBKTNV-1" vertex="1">
          <mxGeometry x="930" y="305" width="250" height="300" as="geometry" />
        </mxCell>
        <mxCell id="STR40PrAWkJtTs-GtsQ4-1" value="&lt;div&gt;- counter : int&lt;/div&gt;&lt;div&gt;+ tempArray : [ , ] object &lt;br&gt;&lt;/div&gt;&lt;div&gt;- nameArray : string&lt;/div&gt;&lt;div&gt;- Text : string&lt;br&gt;&lt;/div&gt;" style="text;html=1;strokeColor=none;fillColor=none;align=center;verticalAlign=middle;whiteSpace=wrap;rounded=0;" parent="STR40PrAWkJtTs-GtsQ4-0" vertex="1">
          <mxGeometry y="30" width="250" height="100" as="geometry" />
        </mxCell>
        <mxCell id="STR40PrAWkJtTs-GtsQ4-2" value="&lt;div&gt;+ SortByName (object [ , ]) : object [, ]&lt;/div&gt;&lt;div&gt;+ SortByQuantity(object [ , ]) : object [, ]&lt;/div&gt;&lt;div&gt;+ SortByBoughtPrice(object [ , ]) : object [, ]&lt;/div&gt;&lt;div&gt;+ SortByOverallPrice(object [ , ]) : object [, ]&lt;/div&gt;&lt;div&gt;+ displayName(object [ , ]) : string&lt;/div&gt;&lt;div&gt;+ displayQuantity(object [ , ]) : string&lt;/div&gt;&lt;div&gt;+ displayBoughtPrice(object [ , ]) : string&lt;/div&gt;&lt;div&gt;+ displayOverallPrice(object [ , ]) : string&lt;/div&gt;&lt;div&gt;Counter() : void&lt;br&gt;&lt;/div&gt;" style="text;html=1;strokeColor=none;fillColor=none;align=center;verticalAlign=middle;whiteSpace=wrap;rounded=0;" parent="STR40PrAWkJtTs-GtsQ4-0" vertex="1">
          <mxGeometry y="120" width="250" height="180" as="geometry" />
        </mxCell>
        <mxCell id="STR40PrAWkJtTs-GtsQ4-3" value="" style="endArrow=none;html=1;rounded=0;exitX=-0.004;exitY=0.056;exitDx=0;exitDy=0;exitPerimeter=0;" parent="STR40PrAWkJtTs-GtsQ4-0" source="STR40PrAWkJtTs-GtsQ4-2" edge="1">
          <mxGeometry width="50" height="50" relative="1" as="geometry">
            <mxPoint x="5" y="130" as="sourcePoint" />
            <mxPoint x="250" y="130" as="targetPoint" />
            <Array as="points">
              <mxPoint x="105" y="130" />
            </Array>
          </mxGeometry>
        </mxCell>
        <mxCell id="STR40PrAWkJtTs-GtsQ4-5" value="DisplayAddNewItem" style="swimlane;whiteSpace=wrap;html=1;fillColor=default;" parent="WIyWlLk6GJQsqaUBKTNV-1" vertex="1">
          <mxGeometry x="-80" y="40" width="200" height="200" as="geometry" />
        </mxCell>
        <mxCell id="STR40PrAWkJtTs-GtsQ4-7" value="- _selectedCategoryName : string" style="text;html=1;strokeColor=none;fillColor=none;align=center;verticalAlign=middle;whiteSpace=wrap;rounded=0;" parent="STR40PrAWkJtTs-GtsQ4-5" vertex="1">
          <mxGeometry y="20" width="200" height="50" as="geometry" />
        </mxCell>
        <mxCell id="STR40PrAWkJtTs-GtsQ4-8" value="" style="endArrow=none;html=1;rounded=0;" parent="STR40PrAWkJtTs-GtsQ4-5" edge="1">
          <mxGeometry width="50" height="50" relative="1" as="geometry">
            <mxPoint y="90" as="sourcePoint" />
            <mxPoint x="200" y="90" as="targetPoint" />
          </mxGeometry>
        </mxCell>
        <mxCell id="STR40PrAWkJtTs-GtsQ4-10" value="Category" style="swimlane;whiteSpace=wrap;html=1;" parent="WIyWlLk6GJQsqaUBKTNV-1" vertex="1">
          <mxGeometry x="640" y="35" width="200" height="200" as="geometry" />
        </mxCell>
        <mxCell id="STR40PrAWkJtTs-GtsQ4-11" value="&lt;div&gt;- categoryName : string&lt;/div&gt;&lt;div&gt;- Items : List&amp;lt;Item&amp;gt;&lt;br&gt;&lt;/div&gt;" style="text;html=1;strokeColor=none;fillColor=none;align=center;verticalAlign=middle;whiteSpace=wrap;rounded=0;" parent="STR40PrAWkJtTs-GtsQ4-10" vertex="1">
          <mxGeometry y="20" width="200" height="60" as="geometry" />
        </mxCell>
        <mxCell id="STR40PrAWkJtTs-GtsQ4-12" value="+ ToString( ) : string" style="text;html=1;strokeColor=none;fillColor=none;align=center;verticalAlign=middle;whiteSpace=wrap;rounded=0;" parent="STR40PrAWkJtTs-GtsQ4-10" vertex="1">
          <mxGeometry y="90" width="200" height="110" as="geometry" />
        </mxCell>
        <mxCell id="STR40PrAWkJtTs-GtsQ4-17" value="" style="endArrow=none;html=1;rounded=0;exitX=-0.005;exitY=0.164;exitDx=0;exitDy=0;exitPerimeter=0;entryX=0.995;entryY=0.164;entryDx=0;entryDy=0;entryPerimeter=0;" parent="STR40PrAWkJtTs-GtsQ4-10" source="STR40PrAWkJtTs-GtsQ4-12" target="STR40PrAWkJtTs-GtsQ4-12" edge="1">
          <mxGeometry width="50" height="50" relative="1" as="geometry">
            <mxPoint x="160" y="-110" as="sourcePoint" />
            <mxPoint x="210" y="-160" as="targetPoint" />
          </mxGeometry>
        </mxCell>
        <mxCell id="STR40PrAWkJtTs-GtsQ4-13" value="CategorySorting" style="swimlane;whiteSpace=wrap;html=1;" parent="WIyWlLk6GJQsqaUBKTNV-1" vertex="1">
          <mxGeometry x="1280" y="30" width="200" height="200" as="geometry" />
        </mxCell>
        <mxCell id="STR40PrAWkJtTs-GtsQ4-14" value="&lt;div&gt;- categoryName : string&lt;/div&gt;&lt;div&gt;+ Items : [ , ] object&lt;br&gt;&lt;/div&gt;" style="text;html=1;strokeColor=none;fillColor=none;align=center;verticalAlign=middle;whiteSpace=wrap;rounded=0;" parent="STR40PrAWkJtTs-GtsQ4-13" vertex="1">
          <mxGeometry y="20" width="200" height="70" as="geometry" />
        </mxCell>
        <mxCell id="STR40PrAWkJtTs-GtsQ4-15" value="&lt;br&gt;&lt;div&gt;+ AddCategory(string) : void&lt;/div&gt;&lt;div&gt;+ RemoveCategory(string) void&lt;/div&gt;&lt;div&gt;+ EditCategory(string, string): void&lt;/div&gt;&lt;div&gt;+ buildArray(string) : void&lt;br&gt;&lt;/div&gt;&lt;div&gt;&lt;br&gt;&lt;/div&gt;" style="text;html=1;strokeColor=none;fillColor=none;align=center;verticalAlign=middle;whiteSpace=wrap;rounded=0;" parent="STR40PrAWkJtTs-GtsQ4-13" vertex="1">
          <mxGeometry y="100" width="200" height="100" as="geometry" />
        </mxCell>
        <mxCell id="STR40PrAWkJtTs-GtsQ4-16" value="" style="endArrow=none;html=1;rounded=0;exitX=0;exitY=0;exitDx=0;exitDy=0;entryX=1;entryY=0;entryDx=0;entryDy=0;" parent="STR40PrAWkJtTs-GtsQ4-13" source="STR40PrAWkJtTs-GtsQ4-15" target="STR40PrAWkJtTs-GtsQ4-15" edge="1">
          <mxGeometry width="50" height="50" relative="1" as="geometry">
            <mxPoint x="46" y="240" as="sourcePoint" />
            <mxPoint x="96" y="190" as="targetPoint" />
          </mxGeometry>
        </mxCell>
        <mxCell id="axsYexuhlJodI0Be2B6z-49" style="edgeStyle=orthogonalEdgeStyle;rounded=0;orthogonalLoop=1;jettySize=auto;html=1;exitX=0;exitY=0.25;exitDx=0;exitDy=0;entryX=1;entryY=0.5;entryDx=0;entryDy=0;" edge="1" parent="WIyWlLk6GJQsqaUBKTNV-1" source="STR40PrAWkJtTs-GtsQ4-18" target="STR40PrAWkJtTs-GtsQ4-11">
          <mxGeometry relative="1" as="geometry" />
        </mxCell>
        <mxCell id="axsYexuhlJodI0Be2B6z-50" style="edgeStyle=orthogonalEdgeStyle;rounded=0;orthogonalLoop=1;jettySize=auto;html=1;exitX=1;exitY=0.25;exitDx=0;exitDy=0;entryX=0;entryY=0.5;entryDx=0;entryDy=0;" edge="1" parent="WIyWlLk6GJQsqaUBKTNV-1" source="STR40PrAWkJtTs-GtsQ4-18" target="STR40PrAWkJtTs-GtsQ4-14">
          <mxGeometry relative="1" as="geometry" />
        </mxCell>
        <mxCell id="STR40PrAWkJtTs-GtsQ4-18" value="Item" style="swimlane;whiteSpace=wrap;html=1;" parent="WIyWlLk6GJQsqaUBKTNV-1" vertex="1">
          <mxGeometry x="930" y="30" width="260" height="210" as="geometry" />
        </mxCell>
        <mxCell id="STR40PrAWkJtTs-GtsQ4-19" value="&lt;div&gt;- name : string&lt;/div&gt;&lt;div&gt;- lotNumbers : List&amp;lt;string&amp;gt;&lt;/div&gt;&lt;div&gt;- priceSold : double&lt;/div&gt;&lt;div&gt;- pricesBought : List&amp;lt;double&amp;gt;&lt;/div&gt;&lt;div&gt;- qtys: List&amp;lt;int&amp;gt;&lt;br&gt;&lt;/div&gt;" style="text;html=1;strokeColor=none;fillColor=none;align=center;verticalAlign=middle;whiteSpace=wrap;rounded=0;" parent="STR40PrAWkJtTs-GtsQ4-18" vertex="1">
          <mxGeometry x="24" y="30" width="200" height="70" as="geometry" />
        </mxCell>
        <mxCell id="STR40PrAWkJtTs-GtsQ4-20" value="&lt;div&gt;+ TotalQty(List&amp;lt;int&amp;gt;) : int&lt;/div&gt;&lt;div&gt;+TotalPricesBought(List&amp;lt;double) : double&lt;/div&gt;&lt;div&gt;+ToString() : string&lt;br&gt;&lt;/div&gt;" style="text;html=1;strokeColor=none;fillColor=none;align=center;verticalAlign=middle;whiteSpace=wrap;rounded=0;" parent="STR40PrAWkJtTs-GtsQ4-18" vertex="1">
          <mxGeometry y="105" width="260" height="130" as="geometry" />
        </mxCell>
        <mxCell id="STR40PrAWkJtTs-GtsQ4-21" value="" style="endArrow=none;html=1;rounded=0;exitX=0.004;exitY=0.192;exitDx=0;exitDy=0;exitPerimeter=0;entryX=0.996;entryY=0.2;entryDx=0;entryDy=0;entryPerimeter=0;" parent="STR40PrAWkJtTs-GtsQ4-18" source="STR40PrAWkJtTs-GtsQ4-20" target="STR40PrAWkJtTs-GtsQ4-20" edge="1">
          <mxGeometry width="50" height="50" relative="1" as="geometry">
            <mxPoint x="70" y="180" as="sourcePoint" />
            <mxPoint x="120" y="130" as="targetPoint" />
          </mxGeometry>
        </mxCell>
        <mxCell id="STR40PrAWkJtTs-GtsQ4-22" value="Store" style="swimlane;whiteSpace=wrap;html=1;" parent="WIyWlLk6GJQsqaUBKTNV-1" vertex="1">
          <mxGeometry x="460" y="-230" width="200" height="200" as="geometry" />
        </mxCell>
        <mxCell id="STR40PrAWkJtTs-GtsQ4-23" value="&lt;div&gt;- COGS : float&lt;/div&gt;&lt;div&gt;- sales :&amp;nbsp; float&lt;/div&gt;&lt;div&gt;- fifo : bool&lt;br&gt;&lt;/div&gt;" style="text;html=1;strokeColor=none;fillColor=none;align=center;verticalAlign=middle;whiteSpace=wrap;rounded=0;" parent="STR40PrAWkJtTs-GtsQ4-22" vertex="1">
          <mxGeometry y="40" width="200" height="70" as="geometry" />
        </mxCell>
        <mxCell id="STR40PrAWkJtTs-GtsQ4-24" value="+ load_store() : void" style="text;html=1;strokeColor=none;fillColor=none;align=center;verticalAlign=middle;whiteSpace=wrap;rounded=0;" parent="STR40PrAWkJtTs-GtsQ4-22" vertex="1">
          <mxGeometry y="110" width="200" height="90" as="geometry" />
        </mxCell>
        <mxCell id="STR40PrAWkJtTs-GtsQ4-25" value="" style="endArrow=none;html=1;rounded=0;exitX=0;exitY=0;exitDx=0;exitDy=0;entryX=1;entryY=0;entryDx=0;entryDy=0;" parent="STR40PrAWkJtTs-GtsQ4-22" source="STR40PrAWkJtTs-GtsQ4-24" target="STR40PrAWkJtTs-GtsQ4-24" edge="1">
          <mxGeometry width="50" height="50" relative="1" as="geometry">
            <mxPoint x="70" y="130" as="sourcePoint" />
            <mxPoint x="120" y="80" as="targetPoint" />
          </mxGeometry>
        </mxCell>
        <mxCell id="axsYexuhlJodI0Be2B6z-39" style="edgeStyle=orthogonalEdgeStyle;rounded=0;orthogonalLoop=1;jettySize=auto;html=1;exitX=0;exitY=0.25;exitDx=0;exitDy=0;entryX=1;entryY=0.5;entryDx=0;entryDy=0;" edge="1" parent="WIyWlLk6GJQsqaUBKTNV-1" source="3hW9-iyvHqGP85PJO1rk-1" target="STR40PrAWkJtTs-GtsQ4-5">
          <mxGeometry relative="1" as="geometry" />
        </mxCell>
        <mxCell id="axsYexuhlJodI0Be2B6z-40" style="edgeStyle=orthogonalEdgeStyle;rounded=0;orthogonalLoop=1;jettySize=auto;html=1;exitX=0;exitY=0.5;exitDx=0;exitDy=0;entryX=1;entryY=0.25;entryDx=0;entryDy=0;" edge="1" parent="WIyWlLk6GJQsqaUBKTNV-1" source="3hW9-iyvHqGP85PJO1rk-1" target="axsYexuhlJodI0Be2B6z-37">
          <mxGeometry relative="1" as="geometry" />
        </mxCell>
        <mxCell id="axsYexuhlJodI0Be2B6z-42" style="edgeStyle=orthogonalEdgeStyle;rounded=0;orthogonalLoop=1;jettySize=auto;html=1;exitX=0;exitY=1;exitDx=0;exitDy=0;entryX=0.75;entryY=0;entryDx=0;entryDy=0;" edge="1" parent="WIyWlLk6GJQsqaUBKTNV-1" source="3hW9-iyvHqGP85PJO1rk-1" target="3hW9-iyvHqGP85PJO1rk-13">
          <mxGeometry relative="1" as="geometry">
            <Array as="points">
              <mxPoint x="213" y="260" />
            </Array>
          </mxGeometry>
        </mxCell>
        <mxCell id="axsYexuhlJodI0Be2B6z-43" style="edgeStyle=orthogonalEdgeStyle;rounded=0;orthogonalLoop=1;jettySize=auto;html=1;exitX=0.25;exitY=1;exitDx=0;exitDy=0;entryX=0.5;entryY=0;entryDx=0;entryDy=0;" edge="1" parent="WIyWlLk6GJQsqaUBKTNV-1" source="3hW9-iyvHqGP85PJO1rk-1" target="3hW9-iyvHqGP85PJO1rk-17">
          <mxGeometry relative="1" as="geometry" />
        </mxCell>
        <mxCell id="axsYexuhlJodI0Be2B6z-44" style="edgeStyle=orthogonalEdgeStyle;rounded=0;orthogonalLoop=1;jettySize=auto;html=1;exitX=0.5;exitY=1;exitDx=0;exitDy=0;entryX=0.5;entryY=0;entryDx=0;entryDy=0;" edge="1" parent="WIyWlLk6GJQsqaUBKTNV-1" source="3hW9-iyvHqGP85PJO1rk-1" target="3hW9-iyvHqGP85PJO1rk-21">
          <mxGeometry relative="1" as="geometry" />
        </mxCell>
        <mxCell id="axsYexuhlJodI0Be2B6z-45" style="edgeStyle=orthogonalEdgeStyle;rounded=0;orthogonalLoop=1;jettySize=auto;html=1;exitX=0;exitY=0.75;exitDx=0;exitDy=0;entryX=1;entryY=0.25;entryDx=0;entryDy=0;" edge="1" parent="WIyWlLk6GJQsqaUBKTNV-1" source="3hW9-iyvHqGP85PJO1rk-1" target="3hW9-iyvHqGP85PJO1rk-5">
          <mxGeometry relative="1" as="geometry">
            <Array as="points">
              <mxPoint x="200" y="212" />
              <mxPoint x="200" y="402" />
            </Array>
          </mxGeometry>
        </mxCell>
        <mxCell id="3hW9-iyvHqGP85PJO1rk-1" value="&lt;b&gt;Main Window&lt;/b&gt;" style="swimlane;fontStyle=0;childLayout=stackLayout;horizontal=1;startSize=26;fillColor=none;horizontalStack=0;resizeParent=1;resizeParentMax=0;resizeLast=0;collapsible=1;marginBottom=0;whiteSpace=wrap;html=1;strokeColor=default;" parent="WIyWlLk6GJQsqaUBKTNV-1" vertex="1">
          <mxGeometry x="320" y="10" width="220" height="320" as="geometry" />
        </mxCell>
        <mxCell id="3hW9-iyvHqGP85PJO1rk-5" value="&lt;b&gt;DisplayEditItem&lt;/b&gt;" style="swimlane;fontStyle=0;childLayout=stackLayout;horizontal=1;startSize=26;fillColor=none;horizontalStack=0;resizeParent=1;resizeParentMax=0;resizeLast=0;collapsible=1;marginBottom=0;whiteSpace=wrap;html=1;" parent="WIyWlLk6GJQsqaUBKTNV-1" vertex="1">
          <mxGeometry x="-140" y="370" width="200" height="130" as="geometry" />
        </mxCell>
        <mxCell id="3hW9-iyvHqGP85PJO1rk-13" value="&lt;b&gt;DisplayRemoveSaleItem&lt;/b&gt;" style="swimlane;fontStyle=0;childLayout=stackLayout;horizontal=1;startSize=26;fillColor=none;horizontalStack=0;resizeParent=1;resizeParentMax=0;resizeLast=0;collapsible=1;marginBottom=0;whiteSpace=wrap;html=1;" parent="WIyWlLk6GJQsqaUBKTNV-1" vertex="1">
          <mxGeometry x="70" y="460" width="190" height="145" as="geometry" />
        </mxCell>
        <mxCell id="3hW9-iyvHqGP85PJO1rk-17" value="&lt;b&gt;DisplayRemoveWriteOffItem&lt;/b&gt;" style="swimlane;fontStyle=0;childLayout=stackLayout;horizontal=1;startSize=26;fillColor=none;horizontalStack=0;resizeParent=1;resizeParentMax=0;resizeLast=0;collapsible=1;marginBottom=0;whiteSpace=wrap;html=1;" parent="WIyWlLk6GJQsqaUBKTNV-1" vertex="1">
          <mxGeometry x="270" y="460" width="220" height="150" as="geometry" />
        </mxCell>
        <mxCell id="3hW9-iyvHqGP85PJO1rk-21" value="&lt;b&gt;DisplayRemoveRecallItem&lt;/b&gt;" style="swimlane;fontStyle=0;childLayout=stackLayout;horizontal=1;startSize=26;fillColor=none;horizontalStack=0;resizeParent=1;resizeParentMax=0;resizeLast=0;collapsible=1;marginBottom=0;whiteSpace=wrap;html=1;" parent="WIyWlLk6GJQsqaUBKTNV-1" vertex="1">
          <mxGeometry x="510" y="460" width="190" height="150" as="geometry" />
        </mxCell>
        <mxCell id="3hW9-iyvHqGP85PJO1rk-25" value="&lt;b&gt;DisplayAddExistingItem&lt;/b&gt;" style="swimlane;fontStyle=0;childLayout=stackLayout;horizontal=1;startSize=26;fillColor=none;horizontalStack=0;resizeParent=1;resizeParentMax=0;resizeLast=0;collapsible=1;marginBottom=0;whiteSpace=wrap;html=1;" parent="WIyWlLk6GJQsqaUBKTNV-1" vertex="1">
          <mxGeometry x="-140" y="250" width="200" height="110" as="geometry" />
        </mxCell>
        <mxCell id="axsYexuhlJodI0Be2B6z-54" style="edgeStyle=orthogonalEdgeStyle;rounded=0;orthogonalLoop=1;jettySize=auto;html=1;exitX=1;exitY=0.5;exitDx=0;exitDy=0;entryX=0.25;entryY=0;entryDx=0;entryDy=0;" edge="1" parent="WIyWlLk6GJQsqaUBKTNV-1" source="3hW9-iyvHqGP85PJO1rk-30" target="3hW9-iyvHqGP85PJO1rk-1">
          <mxGeometry relative="1" as="geometry" />
        </mxCell>
        <mxCell id="3hW9-iyvHqGP85PJO1rk-30" value="&lt;b&gt;FifoWindow&lt;/b&gt;" style="swimlane;fontStyle=0;childLayout=stackLayout;horizontal=1;startSize=30;fillColor=none;horizontalStack=0;resizeParent=1;resizeParentMax=0;resizeLast=0;collapsible=1;marginBottom=0;whiteSpace=wrap;html=1;" parent="WIyWlLk6GJQsqaUBKTNV-1" vertex="1">
          <mxGeometry x="140" y="-60" width="140" height="110" as="geometry" />
        </mxCell>
        <mxCell id="axsYexuhlJodI0Be2B6z-27" value="" style="endArrow=none;html=1;rounded=0;exitX=0;exitY=0.5;exitDx=0;exitDy=0;entryX=1;entryY=0.5;entryDx=0;entryDy=0;" edge="1" parent="WIyWlLk6GJQsqaUBKTNV-1" source="3hW9-iyvHqGP85PJO1rk-13" target="3hW9-iyvHqGP85PJO1rk-13">
          <mxGeometry width="50" height="50" relative="1" as="geometry">
            <mxPoint x="140" y="562" as="sourcePoint" />
            <mxPoint x="190" y="512" as="targetPoint" />
          </mxGeometry>
        </mxCell>
        <mxCell id="axsYexuhlJodI0Be2B6z-28" value="" style="endArrow=none;html=1;rounded=0;exitX=0;exitY=0.5;exitDx=0;exitDy=0;entryX=1;entryY=0.5;entryDx=0;entryDy=0;" edge="1" parent="WIyWlLk6GJQsqaUBKTNV-1" source="3hW9-iyvHqGP85PJO1rk-1" target="3hW9-iyvHqGP85PJO1rk-1">
          <mxGeometry width="50" height="50" relative="1" as="geometry">
            <mxPoint x="420" y="210" as="sourcePoint" />
            <mxPoint x="470" y="160" as="targetPoint" />
          </mxGeometry>
        </mxCell>
        <mxCell id="axsYexuhlJodI0Be2B6z-30" value="" style="endArrow=none;html=1;rounded=0;exitX=0;exitY=0.5;exitDx=0;exitDy=0;entryX=1;entryY=0.5;entryDx=0;entryDy=0;" edge="1" parent="WIyWlLk6GJQsqaUBKTNV-1" source="3hW9-iyvHqGP85PJO1rk-17" target="3hW9-iyvHqGP85PJO1rk-17">
          <mxGeometry width="50" height="50" relative="1" as="geometry">
            <mxPoint x="355" y="557.5" as="sourcePoint" />
            <mxPoint x="405" y="507.5" as="targetPoint" />
          </mxGeometry>
        </mxCell>
        <mxCell id="axsYexuhlJodI0Be2B6z-31" value="" style="endArrow=none;html=1;rounded=0;exitX=0;exitY=0.5;exitDx=0;exitDy=0;entryX=1;entryY=0.5;entryDx=0;entryDy=0;" edge="1" parent="WIyWlLk6GJQsqaUBKTNV-1" source="3hW9-iyvHqGP85PJO1rk-21" target="3hW9-iyvHqGP85PJO1rk-21">
          <mxGeometry width="50" height="50" relative="1" as="geometry">
            <mxPoint x="590" y="570" as="sourcePoint" />
            <mxPoint x="640" y="520" as="targetPoint" />
          </mxGeometry>
        </mxCell>
        <mxCell id="axsYexuhlJodI0Be2B6z-32" value="- _selectedCategoryName : string" style="text;html=1;strokeColor=none;fillColor=none;align=center;verticalAlign=middle;whiteSpace=wrap;rounded=0;" vertex="1" parent="WIyWlLk6GJQsqaUBKTNV-1">
          <mxGeometry x="510" y="480" width="190" height="50" as="geometry" />
        </mxCell>
        <mxCell id="axsYexuhlJodI0Be2B6z-33" value="- _selectedCategoryName : string" style="text;html=1;strokeColor=none;fillColor=none;align=center;verticalAlign=middle;whiteSpace=wrap;rounded=0;" vertex="1" parent="WIyWlLk6GJQsqaUBKTNV-1">
          <mxGeometry x="270" y="480" width="220" height="61" as="geometry" />
        </mxCell>
        <mxCell id="axsYexuhlJodI0Be2B6z-34" value="- _selectedCategoryName : string" style="text;html=1;strokeColor=none;fillColor=none;align=center;verticalAlign=middle;whiteSpace=wrap;rounded=0;" vertex="1" parent="WIyWlLk6GJQsqaUBKTNV-1">
          <mxGeometry x="70" y="480" width="190" height="50" as="geometry" />
        </mxCell>
        <mxCell id="axsYexuhlJodI0Be2B6z-35" value="" style="endArrow=none;html=1;rounded=0;exitX=0;exitY=0.5;exitDx=0;exitDy=0;entryX=1;entryY=0.5;entryDx=0;entryDy=0;" edge="1" parent="WIyWlLk6GJQsqaUBKTNV-1" source="3hW9-iyvHqGP85PJO1rk-5" target="3hW9-iyvHqGP85PJO1rk-5">
          <mxGeometry width="50" height="50" relative="1" as="geometry">
            <mxPoint x="-65" y="460" as="sourcePoint" />
            <mxPoint x="-15" y="410" as="targetPoint" />
          </mxGeometry>
        </mxCell>
        <mxCell id="axsYexuhlJodI0Be2B6z-36" value="- _selectedCategoryName : string" style="text;html=1;strokeColor=none;fillColor=none;align=center;verticalAlign=middle;whiteSpace=wrap;rounded=0;" vertex="1" parent="WIyWlLk6GJQsqaUBKTNV-1">
          <mxGeometry x="-140" y="390" width="200" height="50" as="geometry" />
        </mxCell>
        <mxCell id="axsYexuhlJodI0Be2B6z-37" value="- _selectedCategoryName : string" style="text;html=1;strokeColor=none;fillColor=none;align=center;verticalAlign=middle;whiteSpace=wrap;rounded=0;" vertex="1" parent="WIyWlLk6GJQsqaUBKTNV-1">
          <mxGeometry x="-140" y="270" width="200" height="40" as="geometry" />
        </mxCell>
        <mxCell id="axsYexuhlJodI0Be2B6z-38" value="" style="endArrow=none;html=1;rounded=0;exitX=0;exitY=0.5;exitDx=0;exitDy=0;entryX=1;entryY=0.5;entryDx=0;entryDy=0;" edge="1" parent="WIyWlLk6GJQsqaUBKTNV-1" source="3hW9-iyvHqGP85PJO1rk-25" target="3hW9-iyvHqGP85PJO1rk-25">
          <mxGeometry width="50" height="50" relative="1" as="geometry">
            <mxPoint x="-60" y="320" as="sourcePoint" />
            <mxPoint x="-10" y="270" as="targetPoint" />
          </mxGeometry>
        </mxCell>
        <mxCell id="axsYexuhlJodI0Be2B6z-48" style="edgeStyle=orthogonalEdgeStyle;rounded=0;orthogonalLoop=1;jettySize=auto;html=1;exitX=0;exitY=0.5;exitDx=0;exitDy=0;entryX=1;entryY=0.25;entryDx=0;entryDy=0;" edge="1" parent="WIyWlLk6GJQsqaUBKTNV-1" source="STR40PrAWkJtTs-GtsQ4-11" target="3hW9-iyvHqGP85PJO1rk-1">
          <mxGeometry relative="1" as="geometry" />
        </mxCell>
        <mxCell id="axsYexuhlJodI0Be2B6z-51" style="edgeStyle=orthogonalEdgeStyle;rounded=0;orthogonalLoop=1;jettySize=auto;html=1;exitX=0.25;exitY=1;exitDx=0;exitDy=0;entryX=1;entryY=0.25;entryDx=0;entryDy=0;" edge="1" parent="WIyWlLk6GJQsqaUBKTNV-1" source="STR40PrAWkJtTs-GtsQ4-15" target="STR40PrAWkJtTs-GtsQ4-1">
          <mxGeometry relative="1" as="geometry" />
        </mxCell>
        <mxCell id="axsYexuhlJodI0Be2B6z-53" style="edgeStyle=orthogonalEdgeStyle;rounded=0;orthogonalLoop=1;jettySize=auto;html=1;exitX=0;exitY=0.25;exitDx=0;exitDy=0;entryX=0.5;entryY=0;entryDx=0;entryDy=0;" edge="1" parent="WIyWlLk6GJQsqaUBKTNV-1" source="STR40PrAWkJtTs-GtsQ4-23" target="3hW9-iyvHqGP85PJO1rk-1">
          <mxGeometry relative="1" as="geometry" />
        </mxCell>
        <mxCell id="axsYexuhlJodI0Be2B6z-55" style="edgeStyle=orthogonalEdgeStyle;rounded=0;orthogonalLoop=1;jettySize=auto;html=1;exitX=0;exitY=0;exitDx=0;exitDy=0;entryX=0.75;entryY=0;entryDx=0;entryDy=0;" edge="1" parent="WIyWlLk6GJQsqaUBKTNV-1" source="STR40PrAWkJtTs-GtsQ4-23" target="3hW9-iyvHqGP85PJO1rk-30">
          <mxGeometry relative="1" as="geometry" />
        </mxCell>
        <mxCell id="axsYexuhlJodI0Be2B6z-56" value="1..* &amp;nbsp; &amp;nbsp; &amp;nbsp; &amp;nbsp; &amp;nbsp;&amp;nbsp;&amp;nbsp;&amp;nbsp; 1..*" style="text;html=1;strokeColor=none;fillColor=none;align=center;verticalAlign=middle;whiteSpace=wrap;rounded=0;" vertex="1" parent="WIyWlLk6GJQsqaUBKTNV-1">
          <mxGeometry x="830" y="60" width="110" height="30" as="geometry" />
        </mxCell>
        <mxCell id="axsYexuhlJodI0Be2B6z-58" value="*..1&amp;nbsp;&amp;nbsp;&amp;nbsp;&amp;nbsp;&amp;nbsp;&amp;nbsp;&amp;nbsp;&amp;nbsp;&amp;nbsp; *..1" style="text;html=1;strokeColor=none;fillColor=none;align=center;verticalAlign=middle;whiteSpace=wrap;rounded=0;" vertex="1" parent="WIyWlLk6GJQsqaUBKTNV-1">
          <mxGeometry x="1180" y="55" width="110" height="30" as="geometry" />
        </mxCell>
        <mxCell id="axsYexuhlJodI0Be2B6z-59" value="&lt;div&gt;&lt;div&gt;Public class JsonCategory&lt;/div&gt;&lt;div&gt;&amp;nbsp;- CategoryName: string&lt;br&gt;&lt;/div&gt;&lt;div&gt;- Item: list&amp;lt;Item&amp;gt;&lt;br&gt;&lt;/div&gt;&lt;div&gt;------------------------------------------&lt;br&gt;&lt;/div&gt;&lt;div&gt;Public class JsonItem&lt;/div&gt;&lt;div&gt;&amp;nbsp;- Name: string&lt;br&gt;&lt;/div&gt;&lt;div&gt;&amp;nbsp;- PriceSold: double&lt;br&gt;&lt;/div&gt;&lt;div&gt;&amp;nbsp;- PricesBought: list&amp;lt;double&amp;gt;&lt;br&gt;&lt;/div&gt;&lt;div&gt;&amp;nbsp;- Qtys: list&amp;lt;int&amp;gt; &lt;br&gt;&lt;/div&gt;&lt;div&gt;&amp;nbsp;- LotNumbers: list&amp;lt;string&amp;gt;&lt;br&gt;&lt;/div&gt;&lt;/div&gt;" style="text;html=1;strokeColor=none;fillColor=none;align=center;verticalAlign=middle;whiteSpace=wrap;rounded=0;" vertex="1" parent="WIyWlLk6GJQsqaUBKTNV-1">
          <mxGeometry x="265" y="220" width="330" height="60" as="geometry" />
        </mxCell>
        <mxCell id="axsYexuhlJodI0Be2B6z-60" value="1..1" style="text;html=1;strokeColor=none;fillColor=none;align=center;verticalAlign=middle;whiteSpace=wrap;rounded=0;" vertex="1" parent="WIyWlLk6GJQsqaUBKTNV-1">
          <mxGeometry x="1181" y="330" width="39" height="30" as="geometry" />
        </mxCell>
        <mxCell id="axsYexuhlJodI0Be2B6z-61" value="1..1" style="text;html=1;strokeColor=none;fillColor=none;align=center;verticalAlign=middle;whiteSpace=wrap;rounded=0;" vertex="1" parent="WIyWlLk6GJQsqaUBKTNV-1">
          <mxGeometry x="1330" y="230" width="60" height="30" as="geometry" />
        </mxCell>
      </root>
    </mxGraphModel>
  </diagram>
</mxfile>
